<?xml version="1.0" encoding="UTF-8" standalone="no"?>
<svg
   height="530"
   width="530"
   viewBox="-33.4974 -55.829 128.2206 221.92027"
   version="1.1"
   id="svg1"
   sodipodi:docname="Spotify-Icon-Black-Logo.wine.svg"
   inkscape:version="1.4.2 (f4327f4, 2025-05-13)"
   xmlns:inkscape="http://www.inkscape.org/namespaces/inkscape"
   xmlns:sodipodi="http://sodipodi.sourceforge.net/DTD/sodipodi-0.dtd"
   xmlns="http://www.w3.org/2000/svg"
   xmlns:svg="http://www.w3.org/2000/svg">
  <defs
     id="defs1" />
  <sodipodi:namedview
     id="namedview1"
     pagecolor="#ffffff"
     bordercolor="#000000"
     borderopacity="0.25"
     inkscape:showpageshadow="2"
     inkscape:pageopacity="0.0"
     inkscape:pagecheckerboard="0"
     inkscape:deskcolor="#d1d1d1"
     inkscape:zoom="1.03625"
     inkscape:cx="110.01206"
     inkscape:cy="262.96743"
     inkscape:window-width="1920"
     inkscape:window-height="1009"
     inkscape:window-x="1912"
     inkscape:window-y="-8"
     inkscape:window-maximized="1"
     inkscape:current-layer="svg1" />
  <path
     d="m 96.661904,42.460135 c -35.992005,-21.375 -95.3600045,-23.34 -129.719005,-12.912 -5.519,1.674 -11.353,-1.44 -13.024,-6.958 -1.671999,-5.521 1.439,-11.352 6.96,-13.029 39.4430005,-11.972 105.008,-9.66 146.443001,14.936 4.964,2.947 6.59,9.356 3.649,14.31 -2.944,4.963 -9.359,6.6 -14.309996,3.653 m -1.178,31.658 c -2.525005,4.098 -7.883005,5.383 -11.975004,2.867 -30.005,-18.444 -75.7620005,-23.788 -111.262,-13.012 -4.603,1.39 -9.466,-1.204 -10.864001,-5.8 a 8.717,8.717 0 0 1 5.805,-10.856 c 40.5530005,-12.307 90.968,-6.347 125.432,14.833 4.092005,2.52 5.380005,7.88 2.864005,11.968 M 81.819899,104.52213 a 6.954,6.954 0 0 1 -9.569,2.316 c -26.22,-16.024995 -59.222999,-19.643995 -98.09,-10.765995 a 6.955,6.955 0 0 1 -8.331,-5.232 6.95,6.95 0 0 1 5.233,-8.334 c 42.533001,-9.722 79.017,-5.538 108.448,12.446 a 6.96,6.96 0 0 1 2.31,9.569995 m -51.21,-161.048995 c -61.664,0 -111.656,49.99 -111.656,111.656 0,61.671995 49.992,111.659995 111.657,111.659995 61.668,0 111.659001,-49.988 111.659001,-111.659995 0,-61.665 -49.990001,-111.656 -111.659001,-111.656"
     fill="#191414"
     id="path1"
     style="fill:#10be00;fill-opacity:1" />
</svg>
